Coordinates
version=1
nRows=26
nColumns=30
inDegrees=yes

Units are S.I. units (second, meters, Newtons, ...)
Angles are in degrees.

endheader
time	floatyaw	floatroll	floatpitch	floatx	floaty	floatz	pro_sup_l	deviation_l	flexion_l	cmc_flexion_l	cmc_abduction_l	mp_flexion_l	ip_flexion_l	2mcp_flexion_l	2mcp_abduction_l	2pm_flexion_l	2md_flexion_l	3mcp_flexion_l	3mcp_abduction_l	3pm_flexion_l	3md_flexion_l	4mcp_flexion_l	4mcp_abduction_l	4pm_flexion_l	4md_flexion_l	5mcp_flexion_l	5mcp_abduction_l	5pm_flexion_l	5md_flexion_l
-0.995000	-160.147433	-5.066637	-73.570646	0.082424	-0.182495	-0.015371	99.614041	4.515706	0.102365	15.416839	11.316056	-25.974776	-42.916304	29.166038	6.497156	43.192582	29.204807	23.986175	4.029711	43.503174	28.391272	12.627227	-4.103762	51.278191	34.793026	0.684496	-7.965736	59.730524	41.639292
-0.985000	-160.147433	-5.066637	-73.570646	0.082420	-0.182485	-0.015382	99.589307	4.495146	0.108055	15.393075	11.430833	-25.965623	-42.918615	29.177525	6.494153	43.203283	29.212811	23.968834	4.027724	43.545762	28.409342	12.633787	-4.108422	51.279035	34.800755	0.685415	-7.967840	59.711780	41.644034
-0.975000	-160.147433	-5.066637	-73.570646	0.082418	-0.182469	-0.015400	99.582842	4.475521	0.115789	15.369677	11.516818	-25.962485	-42.924849	29.190318	6.490019	43.200745	29.213526	23.960411	4.024306	43.575390	28.418756	12.641754	-4.113301	51.278335	34.807770	0.682746	-7.963419	59.688217	41.649231
-0.965000	-160.147433	-5.066637	-73.570646	0.082416	-0.182446	-0.015424	99.607661	4.464803	0.125448	15.352298	11.552298	-25.964618	-42.932947	29.203356	6.486550	43.182627	29.204645	23.961219	4.020229	43.586952	28.416990	12.650555	-4.117819	51.274815	34.811400	0.680288	-7.952883	59.660135	41.649823
-0.955000	-160.147433	-5.066637	-73.570646	0.082410	-0.182415	-0.015457	99.666471	4.467883	0.135392	15.344810	11.534579	-25.970323	-42.941153	29.217190	6.484973	43.152607	29.186664	23.970265	4.016593	43.580632	28.404176	12.660191	-4.121451	51.268214	34.809334	0.681540	-7.938528	59.630095	41.642624
-0.945000	-160.147433	-5.066637	-73.570646	0.082393	-0.182377	-0.015502	99.750482	4.485051	0.142112	15.346360	11.481812	-25.976925	-42.948487	29.233390	6.485981	43.118894	29.162557	23.985604	4.014388	43.562643	28.383482	12.671466	-4.123802	51.259488	34.800480	0.688218	-7.923806	59.603843	41.628405
-0.935000	-160.147433	-5.066637	-73.570646	0.082355	-0.182330	-0.015565	99.844232	4.513113	0.140853	15.350788	11.424922	-25.981149	-42.954007	29.251642	6.489851	43.091589	29.137482	24.003640	4.014131	43.543988	28.361000	12.684855	-4.124736	51.250956	34.786002	0.700131	-7.911910	59.588216	41.611454
-0.925000	-160.147433	-5.066637	-73.570646	0.082288	-0.182272	-0.015651	99.933575	4.548192	0.127331	15.349066	11.394047	-25.979924	-42.955738	29.266597	6.496396	43.079785	29.118208	24.018261	4.015591	43.537174	28.344576	12.698817	-4.124440	51.245739	34.769572	0.716217	-7.904470	59.586971	41.596873
-0.915000	-160.147433	-5.066637	-73.570646	0.082184	-0.182191	-0.015766	100.012493	4.588493	0.099840	15.333834	11.406086	-25.971356	-42.950898	29.267575	6.504800	43.088787	29.111338	24.021532	4.017687	43.551625	28.341148	12.709420	-4.123237	51.246009	34.755942	0.735851	-7.901121	59.597636	41.587414
-0.905000	-160.147433	-5.066637	-73.570646	0.082039	-0.182074	-0.015914	100.085139	4.635560	0.060548	15.303742	11.458613	-25.955558	-42.937874	29.242930	6.513586	43.117893	29.120232	24.006782	4.018708	43.589425	28.353337	12.712422	-4.121272	51.250771	34.748157	0.759389	-7.900104	59.612187	41.581904
-0.895000	-160.147433	-5.066637	-73.570646	0.081848	-0.181904	-0.016100	100.162041	4.693550	0.015113	15.265095	11.532120	-25.934791	-42.917987	29.187585	6.520877	43.159857	29.142394	23.972881	4.016884	43.643647	28.377387	12.706747	-4.118354	51.255063	34.745330	0.787355	-7.899423	59.621789	41.576355
-0.885000	-160.147433	-5.066637	-73.570646	0.081612	-0.181668	-0.016327	100.252616	4.767124	-0.029515	15.229618	11.599200	-25.912212	-42.894363	29.109120	6.525041	43.203335	29.169871	23.926988	4.011147	43.700903	28.404482	12.696849	-4.114206	51.252097	34.743071	0.818583	-7.897744	59.623019	41.567240
-0.875000	-160.147433	-5.066637	-73.570646	0.081328	-0.181359	-0.016598	100.358452	4.859354	-0.068548	15.209289	11.636912	-25.889325	-42.867841	29.027733	6.525586	43.238085	29.193362	23.883596	4.001719	43.747386	28.425243	12.692132	-4.108992	51.237573	34.736685	0.848746	-7.894412	59.621600	41.554888
-0.865000	-160.147433	-5.066637	-73.570646	0.080996	-0.180983	-0.016905	100.471402	4.970971	-0.102952	15.210735	11.637428	-25.863796	-42.833515	28.968939	6.523812	43.260014	29.207414	23.859770	3.990231	43.775005	28.434436	12.703708	-4.103733	51.213201	34.724727	0.871255	-7.888780	59.630629	41.544339
-0.855000	-160.147433	-5.066637	-73.570646	0.080616	-0.180555	-0.017242	100.577431	5.101171	-0.141363	15.231786	11.612231	-25.829806	-42.781794	28.952524	6.522467	43.272285	29.212730	23.868607	3.979268	43.783703	28.432554	12.740175	-4.100095	51.186442	34.710053	0.881306	-7.879768	59.663261	41.542385
-0.845000	-160.147433	-5.066637	-73.570646	0.080188	-0.180091	-0.017597	100.663446	5.248766	-0.198360	15.261706	11.587076	-25.781594	-42.704275	28.983788	6.524234	43.281098	29.213766	23.913748	3.971503	43.778664	28.423442	12.804110	-4.099426	51.165945	34.697487	0.881122	-7.866567	59.723523	41.552302
-0.835000	-160.147433	-5.066637	-73.570646	0.079713	-0.179606	-0.017965	100.722607	5.412201	-0.288638	15.285069	11.588703	-25.718560	-42.600645	29.051663	6.529860	43.288979	29.213690	23.987304	3.968722	43.764744	28.410286	12.890380	-4.101545	51.155203	34.689924	0.882083	-7.850242	59.800844	41.569919
-0.825000	-160.147433	-5.066637	-73.570646	0.079197	-0.179108	-0.018341	100.755303	5.588485	-0.419591	15.287737	11.629176	-25.649168	-42.482143	29.133836	6.537209	43.290813	29.210948	24.071971	3.971045	43.742165	28.393148	12.986659	-4.104225	51.148390	34.685799	0.900252	-7.834716	59.872100	41.584083
-0.815000	-160.147433	-5.066637	-73.570646	0.078645	-0.178602	-0.018727	100.766800	5.772694	-0.586569	15.262086	11.697451	-25.591499	-42.370159	29.204441	6.541911	43.276246	29.200430	24.146080	3.976700	43.706139	28.369523	13.075566	-4.103991	51.131428	34.679844	0.946290	-7.825618	59.910404	41.581567
-0.805000	-160.147433	-5.066637	-73.570646	0.078063	-0.178097	-0.019124	100.765044	5.959344	-0.773751	15.208657	11.766244	-25.569472	-42.291790	29.239204	6.539067	43.237312	29.178520	24.188911	3.982629	43.650289	28.337072	13.137382	-4.097948	51.088564	34.666726	1.015678	-7.827089	59.895914	41.553461
-0.795000	-160.147433	-5.066637	-73.570646	0.077455	-0.177602	-0.019534	100.761058	6.144698	-0.960197	15.133446	11.813983	-25.604391	-42.274334	29.216702	6.524886	43.175750	29.148104	24.184169	3.985844	43.571707	28.296581	13.153173	-4.085507	51.011417	34.645190	1.086421	-7.838506	59.823415	41.499432
-0.785000	-160.147433	-5.066637	-73.570646	0.076820	-0.177132	-0.019957	100.770968	6.327748	-1.127963	15.043248	11.850207	-25.702620	-42.338686	29.118839	6.497612	43.104534	29.119637	24.121644	3.984868	43.475131	28.253558	13.109131	-4.068915	50.905673	34.619934	1.127400	-7.853454	59.703830	41.427941
-0.775000	-160.147433	-5.066637	-73.570646	0.076157	-0.176697	-0.020388	100.816166	6.508638	-1.268597	14.943236	11.925901	-25.843626	-42.491687	28.933931	6.457844	43.042810	29.107666	23.998254	3.980347	43.374714	28.217952	13.001974	-4.052198	50.791628	34.599897	1.113511	-7.861927	59.560113	41.353054
-0.765000	-160.147433	-5.066637	-73.570646	0.075471	-0.176301	-0.020813	100.918728	6.685645	-1.385378	14.839370	12.114983	-25.976717	-42.720631	28.661834	6.408597	43.008368	29.125601	23.818747	3.974467	43.292710	28.202165	12.842698	-4.039125	50.697934	34.593774	1.038489	-7.854926	59.420228	41.289874
-0.755000	-160.147433	-5.066637	-73.570646	0.074780	-0.175942	-0.021217	101.092838	6.853253	-1.490344	14.744058	12.471050	-26.034324	-42.994740	28.317091	6.355009	43.012373	29.181993	23.595221	3.969671	43.254278	28.217447	12.655128	-4.031399	50.650790	34.605003	0.917266	-7.829258	59.309838	41.250398
-0.745000	-160.147433	-5.066637	-73.570646	0.074110	-0.175616	-0.021579	101.336746	7.003176	-1.597182	14.679776	12.984793	-25.961307	-43.274806	27.926961	6.303399	43.057520	29.279195	23.345336	3.967608	43.277948	28.268760	12.468568	-4.028152	50.662598	34.628788	0.776695	-7.789838	59.245918	41.240428
